<?xml version="1.0" encoding="UTF-8" standalone="no"?>
<svg width="150px" height="40px" viewBox="0 0 150 40" version="1.1" xmlns="http://www.w3.org/2000/svg" xmlns:xlink="http://www.w3.org/1999/xlink">
    <!-- Generator: Sketch 39.1 (31720) - http://www.bohemiancoding.com/sketch -->
    <title>ios</title>
    <desc>Created with Sketch.</desc>
    <defs></defs>
    <g id="PC头图" stroke="none" stroke-width="1" fill="none" fill-rule="evenodd">
        <g id="ios" fill="#FFFFFF">
            <path d="M47.8046875,30 L48.8046875,26.9453125 L52.6328125,26.9453125 L53.625,30 L55.3515625,30 L51.6328125,19.3359375 L49.890625,19.3359375 L46.171875,30 L47.8046875,30 Z M50.75,21.0859375 L52.25,25.6953125 L49.1875,25.6953125 L50.6953125,21.0859375 L50.75,21.0859375 Z M60.6328125,30.125 C62.546875,30.125 63.8671875,28.6796875 63.8671875,26.25 L63.8671875,25.5078125 C63.8671875,23.0546875 62.5234375,21.640625 60.6796875,21.640625 C59.5703125,21.640625 58.7265625,22.1796875 58.265625,22.9609375 L58.2109375,22.9609375 L58.2109375,21.765625 L56.6796875,21.765625 L56.6796875,32.828125 L58.2578125,32.828125 L58.2578125,28.875 L58.3125,28.875 C58.7578125,29.6171875 59.5703125,30.125 60.6328125,30.125 L60.6328125,30.125 Z M60.3359375,28.796875 C59.0390625,28.796875 58.2421875,27.765625 58.2421875,26.1484375 L58.2421875,25.5546875 C58.2421875,23.984375 59.03125,22.953125 60.3046875,22.953125 C61.5390625,22.953125 62.2734375,23.9140625 62.2734375,25.5625 L62.2734375,26.1484375 C62.2734375,27.875 61.4921875,28.796875 60.3359375,28.796875 L60.3359375,28.796875 Z M69.7890625,30.125 C71.703125,30.125 73.0234375,28.6796875 73.0234375,26.25 L73.0234375,25.5078125 C73.0234375,23.0546875 71.6796875,21.640625 69.8359375,21.640625 C68.7265625,21.640625 67.8828125,22.1796875 67.421875,22.9609375 L67.3671875,22.9609375 L67.3671875,21.765625 L65.8359375,21.765625 L65.8359375,32.828125 L67.4140625,32.828125 L67.4140625,28.875 L67.46875,28.875 C67.9140625,29.6171875 68.7265625,30.125 69.7890625,30.125 L69.7890625,30.125 Z M69.4921875,28.796875 C68.1953125,28.796875 67.3984375,27.765625 67.3984375,26.1484375 L67.3984375,25.5546875 C67.3984375,23.984375 68.1875,22.953125 69.4609375,22.953125 C70.6953125,22.953125 71.4296875,23.9140625 71.4296875,25.5625 L71.4296875,26.1484375 C71.4296875,27.875 70.6484375,28.796875 69.4921875,28.796875 L69.4921875,28.796875 Z M77.4921875,27.0703125 C77.53125,28.4921875 78.5234375,30.21875 81.4296875,30.21875 C83.765625,30.21875 85.4921875,29.0703125 85.4921875,26.9765625 C85.4921875,25.203125 84.3046875,24.4453125 82.6875,24.0390625 L80.90625,23.5859375 C79.8984375,23.34375 79.4140625,22.8203125 79.4140625,22.1015625 C79.4140625,21.046875 80.296875,20.4453125 81.5625,20.4453125 C82.984375,20.4453125 83.71875,21.21875 83.8046875,22.171875 L85.359375,22.171875 C85.3203125,20.1484375 83.5546875,19.09375 81.5859375,19.09375 C79.578125,19.09375 77.796875,20.1953125 77.796875,22.21875 C77.796875,23.921875 79.03125,24.734375 80.359375,25.0625 L82.15625,25.515625 C83.3203125,25.8046875 83.8671875,26.265625 83.8671875,27.109375 C83.8671875,28.1796875 82.9921875,28.859375 81.5703125,28.859375 C80.0078125,28.859375 79.171875,28.0390625 79.078125,27.0703125 L77.4921875,27.0703125 Z M88.2847125,21.765625 L87.1440875,21.765625 L87.1440875,23.046875 L88.2690875,23.046875 L88.2690875,27.6875 C88.2690875,29.328125 88.761275,30.0625 90.74565,30.0625 C91.0659625,30.0625 91.3784625,30.03125 91.511275,30.0078125 L91.511275,28.78125 C91.4019,28.7890625 91.2769,28.796875 91.136275,28.796875 C90.1753375,28.796875 89.8394,28.546875 89.8394,27.609375 L89.8394,23.046875 L91.4565875,23.046875 L91.4565875,21.765625 L89.8394,21.765625 L89.8394,19.734375 L88.2847125,19.734375 L88.2847125,21.765625 Z M96.5894,21.625 C94.2378375,21.625 92.9644,23.296875 92.9644,25.5234375 L92.9644,26.2109375 C92.9644,28.5 94.2378375,30.140625 96.5894,30.140625 C98.93315,30.140625 100.190962,28.5 100.190962,26.2109375 L100.190962,25.515625 C100.190962,23.2890625 98.9253375,21.625 96.5894,21.625 L96.5894,21.625 Z M96.5815875,22.921875 C97.917525,22.921875 98.605025,23.9765625 98.605025,25.5546875 L98.605025,26.1875 C98.605025,27.75 97.9253375,28.828125 96.5815875,28.828125 C95.24565,28.828125 94.5503375,27.7421875 94.5503375,26.1875 L94.5503375,25.5546875 C94.5503375,23.984375 95.24565,22.921875 96.5815875,22.921875 L96.5815875,22.921875 Z M102.144087,30 L103.737837,30 L103.737837,25.03125 C103.737837,23.921875 104.198775,23.046875 105.62065,23.046875 C105.886275,23.046875 106.175337,23.0625 106.323775,23.09375 L106.323775,21.6796875 C106.159712,21.65625 105.972212,21.640625 105.769087,21.640625 C104.612837,21.640625 103.99565,22.3125 103.7769,22.8125 L103.722212,22.8125 L103.722212,21.765625 L102.144087,21.765625 L102.144087,30 Z M110.9644,30.140625 C112.917525,30.140625 113.99565,29.0234375 114.269087,27.6796875 L112.74565,27.6796875 C112.511275,28.4140625 111.9019,28.8671875 110.99565,28.8671875 C109.753462,28.8671875 108.987837,27.8828125 108.987837,26.421875 L108.987837,26.25 L114.37065,26.25 L114.37065,25.46875 C114.37065,23.171875 113.081587,21.625 110.9019,21.625 C108.730025,21.625 107.417525,23.1328125 107.417525,25.390625 L107.417525,26.2578125 C107.417525,28.65625 108.784712,30.140625 110.9644,30.140625 L110.9644,30.140625 Z M108.987837,25.09375 L108.987837,25.0703125 C108.987837,23.8515625 109.737837,22.8828125 110.909712,22.8828125 C112.05815,22.8828125 112.815962,23.84375 112.815962,25.0703125 L112.815962,25.09375 L108.987837,25.09375 Z" id="App-Store-"></path>
            <path d="M46.7714844,7.33496094 L46.7714844,14 L49.0029297,14 C51.1806641,14 51.9521484,12.5791016 51.9521484,10.6601562 C51.9521484,8.71191406 51.1513672,7.33496094 49.0029297,7.33496094 L46.7714844,7.33496094 Z M47.7773438,8.19921875 L48.9150391,8.19921875 C50.3847656,8.19921875 50.9121094,9.18066406 50.9121094,10.6748047 C50.9121094,12.3300781 50.2626953,13.1357422 48.9150391,13.1357422 L47.7773438,13.1357422 L47.7773438,8.19921875 Z M55.1308594,8.765625 C53.6611328,8.765625 52.8652344,9.81054688 52.8652344,11.2021484 L52.8652344,11.6318359 C52.8652344,13.0625 53.6611328,14.0878906 55.1308594,14.0878906 C56.5957031,14.0878906 57.3818359,13.0625 57.3818359,11.6318359 L57.3818359,11.1972656 C57.3818359,9.80566406 56.5908203,8.765625 55.1308594,8.765625 L55.1308594,8.765625 Z M55.1259766,9.57617188 C55.9609375,9.57617188 56.390625,10.2353516 56.390625,11.2216797 L56.390625,11.6171875 C56.390625,12.59375 55.9658203,13.2675781 55.1259766,13.2675781 C54.2910156,13.2675781 53.8564453,12.5888672 53.8564453,11.6171875 L53.8564453,11.2216797 C53.8564453,10.2402344 54.2910156,9.57617188 55.1259766,9.57617188 L55.1259766,9.57617188 Z M65.0527344,8.85351562 L64.0615234,8.85351562 L63.1728516,12.8330078 L63.1337891,12.8330078 L62.0302734,8.85351562 L61.0927734,8.85351562 L59.9941406,12.8330078 L59.9501953,12.8330078 L59.0615234,8.85351562 L58.0654297,8.85351562 L59.4033203,14 L60.4335938,14 L61.546875,10.1328125 L61.5712891,10.1328125 L62.6845703,14 L63.7148438,14 L65.0527344,8.85351562 Z M66.0965312,14 L67.0779766,14 L67.0779766,10.9042969 C67.0779766,10.2158203 67.4539531,9.63964844 68.2645,9.63964844 C68.9480937,9.63964844 69.4412578,10.0400391 69.4412578,10.8798828 L69.4412578,14 L70.4227031,14 L70.4227031,10.6943359 C70.4227031,9.43945312 69.6561016,8.77050781 68.6014141,8.77050781 C67.7566875,8.77050781 67.2830547,9.21972656 67.1023906,9.55664062 L67.0682109,9.55664062 L67.0682109,8.85351562 L66.0965312,8.85351562 L66.0965312,14 Z M71.8094219,14 L72.7908672,14 L72.7908672,6.98339844 L71.8094219,6.98339844 L71.8094219,14 Z M76.3064922,8.765625 C74.8367656,8.765625 74.0408672,9.81054688 74.0408672,11.2021484 L74.0408672,11.6318359 C74.0408672,13.0625 74.8367656,14.0878906 76.3064922,14.0878906 C77.7713359,14.0878906 78.5574687,13.0625 78.5574687,11.6318359 L78.5574687,11.1972656 C78.5574687,9.80566406 77.7664531,8.765625 76.3064922,8.765625 L76.3064922,8.765625 Z M76.3016094,9.57617188 C77.1365703,9.57617188 77.5662578,10.2353516 77.5662578,11.2216797 L77.5662578,11.6171875 C77.5662578,12.59375 77.1414531,13.2675781 76.3016094,13.2675781 C75.4666484,13.2675781 75.0320781,12.5888672 75.0320781,11.6171875 L75.0320781,11.2216797 C75.0320781,10.2402344 75.4666484,9.57617188 76.3016094,9.57617188 L76.3016094,9.57617188 Z M82.6346172,13.3652344 L82.6687969,13.3652344 L82.6687969,14 L83.6111797,14 L83.6111797,10.4746094 C83.6111797,9.3515625 82.7762187,8.77050781 81.6531719,8.77050781 C80.3299297,8.77050781 79.7342266,9.47363281 79.6853984,10.3574219 L80.6131328,10.3574219 C80.6570781,9.87890625 81.0086406,9.56152344 81.623875,9.56152344 C82.2684062,9.56152344 82.6297344,9.90332031 82.6297344,10.5283203 L82.6297344,11.03125 L81.3064922,11.03125 C80.1248516,11.0361328 79.4949687,11.6123047 79.4949687,12.5205078 C79.4949687,13.4726562 80.1785625,14.0830078 81.1746562,14.0830078 C81.936375,14.0830078 82.3953594,13.765625 82.6346172,13.3652344 L82.6346172,13.3652344 Z M81.4627422,13.3066406 C80.9598125,13.3066406 80.4910625,13.0380859 80.4910625,12.4716797 C80.4910625,12.0273438 80.7840312,11.7148438 81.4432109,11.7148438 L82.6297344,11.7148438 L82.6297344,12.2958984 C82.6297344,12.8916016 82.1268047,13.3066406 81.4627422,13.3066406 L81.4627422,13.3066406 Z M86.8094219,8.77050781 C85.5350078,8.77050781 84.7830547,9.76660156 84.7830547,11.1923828 L84.7830547,11.6513672 C84.7830547,13.1064453 85.4959453,14.0732422 86.8094219,14.0732422 C87.5027812,14.0732422 88.0447734,13.7460938 88.3182109,13.21875 L88.3475078,13.21875 L88.3475078,14 L89.3045391,14 L89.3045391,6.98339844 L88.3182109,6.98339844 L88.3182109,9.57617188 L88.2840312,9.57617188 C88.0350078,9.11230469 87.4978984,8.77050781 86.8094219,8.77050781 L86.8094219,8.77050781 Z M87.0242656,9.60058594 C87.8299297,9.60058594 88.3279766,10.2353516 88.3279766,11.2265625 L88.3279766,11.6269531 C88.3279766,12.6669922 87.8348125,13.2431641 87.0340312,13.2431641 C86.3064922,13.2431641 85.7840312,12.7060547 85.7840312,11.6220703 L85.7840312,11.2265625 C85.7840312,10.1376953 86.3064922,9.60058594 87.0242656,9.60058594 L87.0242656,9.60058594 Z M94.7928203,8.765625 C93.3230937,8.765625 92.5271953,9.81054688 92.5271953,11.2021484 L92.5271953,11.6318359 C92.5271953,13.0625 93.3230937,14.0878906 94.7928203,14.0878906 C96.2576641,14.0878906 97.0437969,13.0625 97.0437969,11.6318359 L97.0437969,11.1972656 C97.0437969,9.80566406 96.2527812,8.765625 94.7928203,8.765625 L94.7928203,8.765625 Z M94.7879375,9.57617188 C95.6228984,9.57617188 96.0525859,10.2353516 96.0525859,11.2216797 L96.0525859,11.6171875 C96.0525859,12.59375 95.6277812,13.2675781 94.7879375,13.2675781 C93.9529766,13.2675781 93.5184062,12.5888672 93.5184062,11.6171875 L93.5184062,11.2216797 C93.5184062,10.2402344 93.9529766,9.57617188 94.7879375,9.57617188 L94.7879375,9.57617188 Z M98.2645,14 L99.2459453,14 L99.2459453,10.9042969 C99.2459453,10.2158203 99.6219219,9.63964844 100.432469,9.63964844 C101.116062,9.63964844 101.609227,10.0400391 101.609227,10.8798828 L101.609227,14 L102.590672,14 L102.590672,10.6943359 C102.590672,9.43945312 101.82407,8.77050781 100.769383,8.77050781 C99.9246562,8.77050781 99.4510234,9.21972656 99.2703594,9.55664062 L99.2361797,9.55664062 L99.2361797,8.85351562 L98.2645,8.85351562 L98.2645,14 Z M106.282078,8.85351562 L105.569187,8.85351562 L105.569187,9.65429688 L106.272312,9.65429688 L106.272312,12.5546875 C106.272312,13.5800781 106.57993,14.0390625 107.820164,14.0390625 C108.020359,14.0390625 108.215672,14.0195312 108.29868,14.0048828 L108.29868,13.2382812 C108.23032,13.2431641 108.152195,13.2480469 108.064305,13.2480469 C107.463719,13.2480469 107.253758,13.0917969 107.253758,12.5058594 L107.253758,9.65429688 L108.2645,9.65429688 L108.2645,8.85351562 L107.253758,8.85351562 L107.253758,7.58398438 L106.282078,7.58398438 L106.282078,8.85351562 Z M109.577617,14 L110.563945,14 L110.563945,10.9042969 C110.563945,10.2158203 110.935039,9.63964844 111.750469,9.63964844 C112.438945,9.63964844 112.927227,10.0400391 112.927227,10.8798828 L112.927227,14 L113.913555,14 L113.913555,10.6943359 C113.913555,9.43945312 113.14207,8.77050781 112.087383,8.77050781 C111.247539,8.77050781 110.778789,9.21972656 110.598125,9.55664062 L110.563945,9.55664062 L110.563945,6.98339844 L109.577617,6.98339844 L109.577617,14 Z M117.268047,14.0878906 C118.48875,14.0878906 119.162578,13.3896484 119.333477,12.5498047 L118.381328,12.5498047 C118.234844,13.0087891 117.853984,13.2919922 117.287578,13.2919922 C116.511211,13.2919922 116.032695,12.6767578 116.032695,11.7636719 L116.032695,11.65625 L119.396953,11.65625 L119.396953,11.1679688 C119.396953,9.73242188 118.591289,8.765625 117.228984,8.765625 C115.871562,8.765625 115.05125,9.70800781 115.05125,11.1191406 L115.05125,11.6611328 C115.05125,13.1601562 115.905742,14.0878906 117.268047,14.0878906 L117.268047,14.0878906 Z M116.032695,10.9335938 L116.032695,10.9189453 C116.032695,10.1572266 116.501445,9.55175781 117.233867,9.55175781 C117.951641,9.55175781 118.425273,10.1523438 118.425273,10.9189453 L118.425273,10.9335938 L116.032695,10.9335938 Z" id="Download-on-the"></path>
            <path d="M26.093552,12.207 C26.797552,11.35 27.259552,10.171 27.138552,9 C26.133552,9.04 24.908552,9.667 24.181552,10.519 C23.537552,11.263 22.970552,12.46 23.128552,13.617 C24.245552,13.685 25.393552,13.033 26.093552,12.207 M31.302552,23.659 C31.276552,23.735 30.883552,25.105 29.917552,26.514 C29.081552,27.728 28.217552,28.953 26.852552,28.975 C25.509552,28.999 25.079552,28.175 23.546552,28.175 C22.015552,28.175 21.534552,28.953 20.265552,28.999 C18.953552,29.052 17.943552,27.671 17.104552,26.462 C15.389552,23.985 14.069552,19.443 15.840552,16.4 C16.711552,14.877 18.277552,13.909 19.983552,13.882 C21.268552,13.858 22.491552,14.752 23.272552,14.752 C24.074552,14.752 25.554552,13.67 27.114552,13.832 C27.768552,13.86 29.595552,14.105 30.773552,15.81 C30.681552,15.873 28.586552,17.108 28.609552,19.62 C28.641552,22.654 31.273552,23.649 31.302552,23.659" id="Fill-8"></path>
        </g>
    </g>
</svg>